<?xml version="1.0" standalone="no"?>
<!DOCTYPE svg PUBLIC "-//W3C//DTD SVG 20010904//EN"
 "http://www.w3.org/TR/2001/REC-SVG-20010904/DTD/svg10.dtd">
<svg version="1.0" xmlns="http://www.w3.org/2000/svg"
 width="361.000000pt" height="124.000000pt" viewBox="0 0 361.000000 124.000000"
 preserveAspectRatio="xMidYMid meet">

<g transform="translate(0.000000,124.000000) scale(0.100000,-0.100000)"
fill="#000000" stroke="none">
<path d="M490 1232 c0 -4 15 -13 33 -20 39 -14 764 -17 835 -3 27 5 45 5 49
-2 9 -16 574 1 621 18 32 12 -74 14 -750 14 -434 1 -788 -3 -788 -7z"/>
<path d="M2377 1233 c-29 -28 -1 -30 361 -26 202 2 374 4 382 3 8 0 22 -1 31
-1 8 0 31 6 50 14 31 14 -5 15 -392 16 -234 1 -429 -2 -432 -6z"/>
<path d="M500 1100 l0 -70 -43 0 c-39 0 -44 3 -56 33 -14 34 -16 32 -26 -25
-3 -21 -17 -51 -30 -67 -28 -33 -33 -69 -10 -77 28 -11 85 5 83 24 -1 9 0 34
0 55 2 36 3 37 42 37 l40 0 -4 -47 c-5 -70 -18 -133 -26 -133 -4 0 -5 -10 -3
-23 2 -12 -1 -36 -8 -52 -6 -17 -13 -37 -14 -45 -3 -23 -75 -131 -109 -163
-29 -27 -29 -28 -5 -16 35 19 93 70 114 103 11 17 24 25 33 21 10 -3 12 0 8
10 -3 8 8 42 24 74 17 32 30 64 30 70 0 6 5 11 10 11 7 0 8 -40 4 -114 -8
-130 -2 -166 25 -166 11 0 21 -5 23 -11 2 -7 23 -7 68 0 36 6 81 11 101 11 33
0 36 2 32 24 -3 16 -10 23 -19 19 -9 -3 -12 0 -9 8 3 8 7 58 8 112 2 70 0 97
-9 97 -16 0 -24 -24 -24 -74 0 -42 -24 -91 -40 -81 -5 3 -12 0 -15 -6 -5 -7 1
-9 16 -7 20 2 24 -1 21 -22 -1 -14 -7 -26 -12 -28 -6 -2 -10 -8 -10 -13 0 -4
8 -6 18 -2 12 4 14 3 7 -5 -10 -10 -60 -16 -118 -13 -27 1 -27 2 -11 26 12 19
16 54 17 165 2 113 5 143 17 151 13 8 12 11 -4 24 -11 8 -30 15 -43 15 -20 0
-23 5 -23 40 l0 40 65 0 c59 0 65 -2 65 -21 0 -11 -5 -29 -11 -41 -6 -11 -9
-22 -6 -24 5 -6 69 28 79 41 4 6 12 11 18 11 5 1 15 2 20 3 6 0 10 9 10 19 0
21 -46 69 -57 59 -3 -4 -12 -2 -19 4 -9 8 -15 5 -24 -10 -9 -18 -20 -20 -80
-20 -65 1 -69 2 -60 19 6 10 10 32 10 49 0 17 5 31 10 31 6 0 10 5 10 10 0 6
-11 8 -25 4 -16 -4 -34 0 -50 10 l-25 16 0 -70z m110 -190 c0 -5 -14 -7 -32
-3 -46 8 -48 13 -5 13 21 0 37 -4 37 -10z"/>
<path d="M2254 1162 c9 -15 -39 -49 -81 -57 -32 -6 -35 -8 -20 -17 17 -9 18
-31 19 -271 0 -392 -1 -359 15 -345 8 6 12 17 9 25 -7 16 10 18 20 1 5 -8 11
-6 20 6 11 16 13 14 19 -12 3 -16 16 -34 28 -40 12 -6 16 -11 9 -11 -21 -1 -3
-21 20 -21 14 0 18 5 14 16 -3 9 -6 19 -6 23 0 4 -10 7 -22 7 -18 -1 -22 4
-19 19 2 11 7 52 11 90 3 39 7 64 8 56 1 -8 5 -12 8 -9 3 4 1 15 -5 26 -6 12
-12 120 -14 268 -3 231 -5 249 -21 252 -11 2 -16 0 -12 -6z"/>
<path d="M170 1153 c0 -4 9 -17 21 -29 11 -12 28 -37 37 -55 12 -24 25 -35 43
-37 35 -4 48 15 37 56 -6 24 -14 32 -31 32 -12 0 -41 9 -64 20 -24 10 -43 16
-43 13z"/>
<path d="M2070 1100 c0 -5 9 -10 21 -10 11 0 17 5 14 10 -3 6 -13 10 -21 10
-8 0 -14 -4 -14 -10z"/>
<path d="M304 998 c-38 -76 -47 -86 -54 -57 -4 17 -15 25 -43 31 -21 4 -51 15
-67 23 -25 13 -30 13 -30 1 0 -7 8 -16 19 -19 10 -2 27 -23 37 -46 10 -22 23
-41 30 -41 27 0 36 -27 19 -59 -8 -17 -20 -31 -25 -31 -6 0 -10 -8 -10 -17 0
-9 -7 -24 -15 -33 -14 -15 -14 -20 0 -46 19 -37 19 -54 0 -54 -8 0 -15 -7 -15
-15 0 -8 7 -15 16 -15 9 0 14 -6 11 -12 -2 -7 -11 -12 -21 -10 -9 2 -16 -2
-16 -8 0 -6 4 -9 9 -5 6 3 13 -10 16 -29 8 -38 27 -51 55 -36 27 14 31 36 22
118 -7 57 -5 72 5 72 16 0 17 12 3 26 -7 7 -3 30 11 70 28 81 77 244 73 244
-2 0 -16 -24 -30 -52z"/>
<path d="M1804 1015 c-8 -20 2 -30 39 -39 20 -5 29 -2 34 9 7 20 -4 32 -39 40
-21 5 -29 3 -34 -10z"/>
<path d="M2489 1009 c-8 -16 -25 -60 -90 -233 l-29 -79 85 7 c81 7 89 6 148
-22 68 -32 117 -73 117 -96 0 -8 5 -16 11 -18 7 -2 12 -25 13 -50 1 -25 5 -44
10 -41 5 3 6 -14 2 -40 -8 -50 9 -76 20 -30 9 44 12 50 13 26 1 -12 6 -25 11
-28 6 -3 10 -13 10 -21 0 -18 -42 -36 -51 -22 -7 11 -39 -17 -39 -34 0 -5 7
-8 15 -4 10 4 15 -1 15 -14 0 -25 5 -25 40 0 16 11 31 33 35 48 3 15 15 41 26
57 l20 30 -6 -33 c-4 -20 -3 -32 4 -32 11 0 14 21 12 70 -4 84 -12 120 -32
155 -13 21 -18 35 -11 31 23 -14 12 12 -12 27 -13 9 -29 22 -37 29 -26 25 -91
50 -138 52 -25 1 -74 3 -107 4 -46 2 -63 6 -68 18 -8 21 13 61 24 45 5 -10 9
-9 13 3 3 8 1 16 -5 18 -7 3 -7 12 3 28 13 24 14 29 17 58 2 10 33 13 142 11
77 -1 142 0 144 2 2 2 10 24 18 49 l15 45 -174 0 c-152 0 -176 -2 -184 -16z
m334 -559 c-3 -12 -8 -19 -11 -16 -5 6 5 36 12 36 2 0 2 -9 -1 -20z"/>
<path d="M3237 1024 c-16 -16 168 -274 195 -274 18 0 87 34 88 43 0 4 -8 11
-17 14 -26 10 -115 65 -144 88 -13 11 -41 46 -63 78 -37 56 -46 63 -59 51z"/>
<path d="M3086 1006 c-8 -6 -28 -46 -45 -88 -16 -43 -46 -100 -66 -128 -38
-51 -37 -62 4 -34 16 11 26 13 33 6 6 -6 31 -8 61 -5 45 6 50 4 44 -11 -4 -10
-7 -22 -7 -27 0 -6 -6 -7 -12 -3 -10 6 -10 4 0 -7 17 -18 15 -32 -9 -60 -11
-13 -16 -25 -10 -27 7 -2 8 -15 4 -30 -6 -27 -6 -27 16 -8 24 22 40 14 20 -10
-12 -14 -11 -16 6 -13 11 3 20 11 20 19 1 33 29 100 42 100 7 0 13 5 13 10 0
6 -4 10 -9 10 -5 0 -6 12 -2 28 8 28 37 37 89 26 20 -4 22 -10 22 -67 0 -34
-4 -79 -9 -100 -10 -43 2 -58 20 -25 12 22 12 22 19 3 6 -16 9 -13 18 20 17
66 23 155 11 155 -5 0 -7 5 -4 10 4 6 11 8 16 5 19 -12 8 12 -15 35 -17 15
-31 20 -43 15 -12 -5 -14 -9 -5 -12 39 -15 -3 -23 -117 -23 -175 0 -186 5
-133 70 16 19 41 56 56 83 15 26 34 47 42 47 25 0 15 15 -21 32 -26 12 -38 13
-49 4z"/>
<path d="M1260 945 c-4 -12 -3 -23 3 -27 10 -6 12 -106 3 -115 -10 -11 -69 -4
-77 8 -14 22 -10 39 9 39 16 1 16 1 0 14 -21 15 -24 42 -5 49 9 3 7 10 -6 23
-14 15 -19 16 -26 6 -6 -9 -38 -13 -117 -13 -60 0 -120 2 -132 3 -23 3 -24 2
-27 -112 -3 -81 0 -117 8 -122 22 -14 45 -8 50 13 4 15 12 20 29 17 20 -3 23
-9 24 -48 1 -65 13 -122 25 -115 5 4 9 -1 9 -9 0 -8 -8 -17 -17 -19 -10 -3 -1
-5 20 -6 41 -1 44 3 21 27 -11 10 -13 17 -5 20 6 2 11 14 11 27 0 14 7 25 18
28 9 3 2 5 -17 6 -30 1 -33 3 -19 14 9 6 18 25 20 42 4 35 35 47 54 20 11 -15
10 -23 -2 -47 -9 -17 -14 -31 -12 -33 8 -6 88 -14 88 -9 0 4 -11 22 -25 39
-23 32 -24 33 -5 38 16 4 20 14 20 44 l0 38 46 -4 46 -3 -6 -54 c-3 -30 -16
-75 -27 -99 -11 -24 -18 -48 -15 -54 3 -5 -10 -23 -29 -40 -39 -34 -35 -42 4
-12 14 10 31 17 38 14 8 -3 13 2 13 13 1 11 10 35 21 54 11 19 18 27 15 18 -3
-12 0 -18 9 -18 9 0 16 10 16 23 2 44 4 50 15 54 7 2 15 -13 19 -34 4 -21 20
-57 36 -81 16 -24 29 -48 29 -53 0 -6 5 -7 10 -4 6 3 10 2 10 -4 0 -12 23 -9
41 6 8 5 20 12 28 15 8 2 -12 27 -55 65 -60 54 -71 69 -88 122 -10 34 -16 65
-12 68 3 3 20 6 37 5 17 0 41 6 53 13 19 13 25 13 43 0 37 -26 39 4 4 39 l-32
31 -28 -32 c-24 -29 -33 -33 -72 -32 -24 1 -36 3 -26 6 14 4 17 16 17 63 0 32
5 62 10 65 21 13 8 23 -36 27 -39 3 -48 0 -54 -17z m-263 -72 c-2 -31 -6 -39
-24 -41 -21 -3 -23 1 -23 37 0 37 3 41 24 41 21 0 24 -4 23 -37z m123 13 c0
-39 -11 -56 -34 -55 -16 0 -17 2 -5 7 11 5 13 14 8 32 -4 14 -7 21 -8 17 -1
-5 -6 -5 -11 -2 -16 10 -1 25 26 25 19 0 24 -5 24 -24z m-120 -107 c0 -37 -2
-39 -31 -39 -28 0 -31 3 -25 23 3 12 6 29 6 37 0 9 10 16 25 16 23 2 25 -2 25
-37z m118 4 c-3 -37 -4 -38 -43 -40 -22 -1 -34 0 -27 3 6 3 12 16 12 28 0 27
18 46 43 46 15 0 18 -6 15 -37z m349 -243 l28 -8 -30 -1 c-30 -1 -55 14 -55
32 0 5 6 4 14 -2 8 -7 27 -16 43 -21z"/>
<path d="M1401 942 c-24 -21 -33 -39 -40 -80 -10 -62 1 -66 42 -17 18 22 28
48 31 79 3 25 3 46 2 46 -2 0 -17 -12 -35 -28z"/>
<path d="M777 953 c-13 -12 -7 -81 6 -86 11 -4 13 5 9 41 -5 52 -6 55 -15 45z"/>
<path d="M1125 950 c-3 -5 -1 -10 4 -10 6 0 11 5 11 10 0 6 -2 10 -4 10 -3 0
-8 -4 -11 -10z"/>
<path d="M1780 940 c0 -21 4 -25 43 -34 20 -5 29 -2 34 9 7 21 -4 31 -44 38
-28 6 -33 4 -33 -13z"/>
<path d="M1793 873 c9 -2 25 -2 35 0 9 3 1 5 -18 5 -19 0 -27 -2 -17 -5z"/>
<path d="M1760 818 c-19 -5 -47 -12 -62 -15 -33 -6 -98 -68 -120 -115 -23 -49
-37 -96 -29 -103 3 -4 11 -23 16 -43 14 -50 36 -55 28 -6 -5 29 -3 35 7 29 10
-6 11 -2 6 20 -11 45 22 120 76 171 26 24 57 44 69 44 20 0 21 -3 15 -47 -3
-27 -22 -81 -41 -122 -41 -85 -42 -90 -15 -66 28 26 25 7 -8 -40 -23 -34 -32
-39 -57 -37 -16 2 -27 0 -23 -4 5 -4 21 -9 37 -10 24 -3 33 2 44 24 8 15 26
51 41 80 25 49 42 70 30 37 -4 -8 -4 -15 0 -15 3 0 15 32 27 71 17 58 20 78
11 105 -10 32 -9 34 14 34 62 0 133 -65 147 -136 3 -17 0 -55 -8 -84 -13 -48
-13 -51 3 -37 9 8 26 17 37 19 28 4 35 17 35 66 0 49 -9 70 -56 129 -31 38
-38 41 -96 48 -35 3 -70 8 -78 10 -8 1 -31 -2 -50 -7z"/>
<path d="M1685 710 c-3 -5 3 -10 15 -10 12 0 18 5 15 10 -3 6 -10 10 -15 10
-5 0 -12 -4 -15 -10z"/>
<path d="M2470 685 c0 -8 4 -15 10 -15 5 0 7 7 4 15 -4 8 -8 15 -10 15 -2 0
-4 -7 -4 -15z"/>
<path d="M516 657 c3 -10 9 -15 12 -12 3 3 0 11 -7 18 -10 9 -11 8 -5 -6z"/>
<path d="M630 657 c0 -7 9 -13 19 -14 14 -1 18 3 14 13 -6 17 -33 19 -33 1z"/>
<path d="M876 625 c4 -8 10 -12 15 -9 14 8 10 24 -6 24 -9 0 -12 -6 -9 -15z"/>
<path d="M1833 625 c-3 -9 -3 -18 0 -21 9 -9 27 6 27 22 0 19 -19 18 -27 -1z"/>
<path d="M825 620 c-3 -5 -1 -10 4 -10 6 0 11 5 11 10 0 6 -2 10 -4 10 -3 0
-8 -4 -11 -10z"/>
<path d="M1190 594 c-17 -19 -47 -36 -85 -45 l-30 -7 28 -1 c35 -1 83 23 97
49 13 24 7 26 -10 4z"/>
<path d="M1833 579 c-21 -8 -33 -39 -15 -39 24 1 52 14 52 26 0 19 -12 23 -37
13z"/>
<path d="M3035 570 c-3 -5 -1 -10 4 -10 6 0 11 5 11 10 0 6 -2 10 -4 10 -3 0
-8 -4 -11 -10z"/>
<path d="M3155 550 c3 -5 8 -10 11 -10 2 0 4 5 4 10 0 6 -5 10 -11 10 -5 0 -7
-4 -4 -10z"/>
<path d="M850 536 c0 -1 5 -17 11 -35 12 -35 24 -40 32 -12 2 11 15 21 28 24
19 3 18 5 -8 6 -17 0 -35 6 -38 11 -6 9 -25 14 -25 6z"/>
<path d="M1848 527 c-28 -11 -35 -22 -19 -31 4 -3 19 6 31 19 13 14 22 25 19
24 -2 -1 -16 -6 -31 -12z"/>
<path d="M1951 496 l-35 -41 39 37 c22 21 37 39 35 41 -3 2 -20 -15 -39 -37z"/>
<path d="M958 523 c6 -2 18 -2 25 0 6 3 1 5 -13 5 -14 0 -19 -2 -12 -5z"/>
<path d="M662 508 c2 -6 10 -14 16 -16 7 -2 10 2 6 12 -7 18 -28 22 -22 4z"/>
<path d="M1215 510 c-3 -6 1 -7 9 -4 18 7 21 14 7 14 -6 0 -13 -4 -16 -10z"/>
<path d="M727 499 c7 -7 15 -10 18 -7 3 3 -2 9 -12 12 -14 6 -15 5 -6 -5z"/>
<path d="M3180 494 c0 -10 3 -14 7 -11 3 4 15 0 25 -10 10 -9 21 -14 24 -11 3
3 -9 16 -25 28 -28 19 -31 20 -31 4z"/>
<path d="M3270 480 c-14 -10 -23 -21 -20 -23 3 -3 19 6 35 19 35 28 22 32 -15
4z"/>
<path d="M1195 480 c3 -5 8 -10 11 -10 2 0 4 5 4 10 0 6 -5 10 -11 10 -5 0 -7
-4 -4 -10z"/>
<path d="M1360 476 c0 -2 7 -6 15 -10 8 -3 15 -1 15 4 0 6 -7 10 -15 10 -8 0
-15 -2 -15 -4z"/>
<path d="M2208 433 c7 -3 16 -2 19 1 4 3 -2 6 -13 5 -11 0 -14 -3 -6 -6z"/>
<path d="M3125 430 c3 -5 11 -10 16 -10 6 0 7 5 4 10 -3 6 -11 10 -16 10 -6 0
-7 -4 -4 -10z"/>
<path d="M1927 414 c-30 -16 -31 -18 -17 -45 14 -24 32 -24 54 0 16 17 16 22
4 39 -12 18 -16 19 -41 6z"/>
<path d="M3025 411 c-3 -5 -2 -12 3 -15 5 -3 9 1 9 9 0 17 -3 19 -12 6z"/>
<path d="M1973 353 c-27 -18 -30 -51 -7 -60 10 -3 26 4 42 20 21 22 23 28 12
41 -15 19 -19 19 -47 -1z"/>
<path d="M2681 331 c-13 -23 -14 -31 -3 -31 13 0 32 39 22 45 -5 3 -14 -3 -19
-14z"/>
<path d="M3006 342 c-3 -5 3 -17 13 -26 11 -10 22 -13 25 -8 3 5 -3 17 -13 26
-11 10 -22 13 -25 8z m25 -19 c13 -16 12 -17 -3 -4 -17 13 -22 21 -14 21 2 0
10 -8 17 -17z"/>
<path d="M2806 305 c-11 -8 -17 -17 -14 -20 2 -3 13 4 23 15 21 23 18 25 -9 5z"/>
<path d="M2014 285 c-16 -25 -12 -45 10 -45 18 0 59 47 51 59 -11 19 -44 12
-61 -14z"/>
<path d="M2081 249 c-27 -29 -27 -46 0 -54 24 -8 50 20 46 49 -3 28 -22 30
-46 5z"/>
<path d="M2144 203 c-22 -29 -21 -53 1 -53 7 0 20 12 30 26 15 23 15 28 3 40
-12 12 -17 10 -34 -13z"/>
<path d="M2400 215 c0 -8 2 -15 4 -15 2 0 6 7 10 15 3 8 1 15 -4 15 -6 0 -10
-7 -10 -15z"/>
<path d="M2616 214 c-10 -25 1 -29 14 -5 6 12 7 21 1 21 -5 0 -12 -7 -15 -16z"/>
<path d="M2202 166 c-7 -17 -7 -27 1 -35 17 -17 24 -13 36 20 14 41 14 39 -7
39 -11 0 -24 -11 -30 -24z"/>
<path d="M2438 178 c5 -5 16 -8 23 -6 8 3 3 7 -10 11 -17 4 -21 3 -13 -5z"/>
<path d="M2271 149 c-12 -36 -7 -49 18 -49 26 0 34 57 10 70 -14 8 -19 4 -28
-21z"/>
<path d="M2344 126 c-7 -30 1 -46 24 -46 21 0 29 50 10 62 -21 13 -27 9 -34
-16z"/>
<path d="M2420 128 c0 -29 13 -58 25 -58 17 0 23 17 17 47 -5 24 -42 33 -42
11z"/>
<path d="M2495 108 c-8 -21 0 -48 15 -48 12 0 12 17 0 45 -7 18 -8 19 -15 3z"/>
</g>
</svg>
